<svg width="29" height="29" viewBox="0 0 29 29" fill="none" xmlns="http://www.w3.org/2000/svg">
<path d="M15.5998 2.72754C9.16959 2.72754 3.92773 7.95312 3.92773 14.3996C3.92773 20.8461 9.15332 26.0717 15.5998 26.0717C22.0463 26.0717 27.2719 20.8461 27.2719 14.3996C27.2719 7.95312 22.0301 2.72754 15.5998 2.72754ZM15.5998 4.48568C21.0859 4.48568 25.5138 8.91359 25.5138 14.3996C25.5138 19.8857 21.0859 24.3136 15.5998 24.3136C10.1138 24.3136 5.68587 19.8857 5.68587 14.3996C5.68587 8.91359 10.1138 4.48568 15.5998 4.48568ZM19.9626 10.8996C19.7347 10.8996 19.5231 10.9973 19.3603 11.1601L14.151 16.3694L11.8394 14.0741C11.4975 13.7322 10.944 13.7159 10.6022 14.0415C10.2603 14.3671 10.244 14.9368 10.5696 15.2787C10.5859 15.295 10.5859 15.295 10.6022 15.3113L13.5161 18.2252C13.858 18.5671 14.4115 18.5671 14.7533 18.2252L20.5812 12.3973C20.9231 12.0554 20.9394 11.502 20.5975 11.1601C20.4347 10.981 20.2068 10.8834 19.9626 10.8996Z" fill="#7646FF"/>
</svg>
